<?xml version="1.0" encoding="UTF-8"?>
<svg width="180" height="180" viewBox="0 0 180 180" xmlns="http://www.w3.org/2000/svg">
  <rect width="180" height="180" fill="#FFFFFF" rx="40"/>
  <!-- Black Pearl Symbol Simplified for Apple Icon -->
  <g transform="translate(90, 90)">
    <!-- Outer circle -->
    <circle cx="0" cy="0" r="65" fill="none" stroke="#000000" stroke-width="8"/>
    
    <!-- Inner pearl -->
    <circle cx="0" cy="0" r="40" fill="#000000"/>
    <circle cx="0" cy="0" r="20" fill="#000000"/>
    <circle cx="5" cy="-5" r="5" fill="#FFFFFF"/>
    
    <!-- Swirl petals -->
    <path d="M 0,-65 Q 50,-50 40,-17 Q 27,0 0,0" fill="#000000"/>
    <path d="M 46,-46 Q 50,17 23,23 Q 0,17 0,0" fill="#000000"/>
    <path d="M 65,0 Q 50,50 17,40 Q 0,27 0,0" fill="#000000"/>
    <path d="M 46,46 Q -17,50 -23,23 Q -17,0 0,0" fill="#000000"/>
    <path d="M 0,65 Q -50,50 -40,17 Q -27,0 0,0" fill="#000000"/>
    <path d="M -46,46 Q -50,-17 -23,-23 Q 0,-17 0,0" fill="#000000"/>
    <path d="M -65,0 Q -50,-50 -17,-40 Q 0,-27 0,0" fill="#000000"/>
    <path d="M -46,-46 Q 17,-50 23,-23 Q 17,0 0,0" fill="#000000"/>
  </g>
</svg>

